<svg width="24" height="24" viewBox="0 0 24 24" fill="none" xmlns="http://www.w3.org/2000/svg">
<path d="M14.5319 9.46992L9.47188 14.5299C8.82188 13.8799 8.42188 12.9899 8.42188 11.9999C8.42188 10.0199 10.0219 8.41992 12.0019 8.41992C12.9919 8.41992 13.8819 8.81992 14.5319 9.46992Z" stroke="#0076A7" stroke-width="1.5" stroke-linecap="round" stroke-linejoin="round"/>
<path d="M17.82 5.76998C16.07 4.44998 14.07 3.72998 12 3.72998C8.46997 3.72998 5.17997 5.80998 2.88997 9.40998C1.98997 10.82 1.98997 13.19 2.88997 14.6C3.67997 15.84 4.59997 16.91 5.59997 17.77" stroke="#0076A7" stroke-width="1.5" stroke-linecap="round" stroke-linejoin="round"/>
<path d="M8.42188 19.5302C9.56187 20.0102 10.7719 20.2702 12.0019 20.2702C15.5319 20.2702 18.8219 18.1902 21.1119 14.5902C22.0119 13.1802 22.0119 10.8102 21.1119 9.40018C20.7819 8.88018 20.4219 8.39018 20.0519 7.93018" stroke="#0076A7" stroke-width="1.5" stroke-linecap="round" stroke-linejoin="round"/>
<path d="M15.5114 12.7002C15.2514 14.1102 14.1014 15.2602 12.6914 15.5202" stroke="#0076A7" stroke-width="1.5" stroke-linecap="round" stroke-linejoin="round"/>
<path d="M9.47 14.53L2 22" stroke="#0076A7" stroke-width="1.5" stroke-linecap="round" stroke-linejoin="round"/>
<path d="M22.0013 2L14.5312 9.47" stroke="#0076A7" stroke-width="1.5" stroke-linecap="round" stroke-linejoin="round"/>
</svg>
